<svg width="946" height="225" viewBox="0 0 946 225" fill="none" xmlns="http://www.w3.org/2000/svg">
<rect width="198.623" height="240.75" transform="matrix(1 0 -0.35576 0.934578 485.114 0)" fill="#E9C46A"/>
<rect width="205.182" height="240.75" transform="matrix(1 0 -0.35576 0.934578 280.934 0)" fill="#F4A261"/>
<rect width="255.244" height="240.75" transform="matrix(1 0 -0.35576 0.934578 683.496 0)" fill="#2A9D8F"/>
<rect width="195.264" height="240.75" transform="matrix(1 0 -0.35576 0.934578 85.6494 0)" fill="#E76F51"/>
<path d="M146.034 65.1211L143.881 70.9114H150.057L145.751 82.4919H139.574L137.421 88.2821H118.891L99.5107 140.394H93.3343L91.1809 146.185H66.475L68.6284 140.394H62.4519L81.8325 88.2821H63.303L65.4564 82.4919H71.6329L73.7863 76.7016H79.9628L82.1162 70.9114H69.7632L71.9166 65.1211H146.034ZM69.7632 70.9114L65.4564 82.4919H59.28L63.5868 70.9114H69.7632ZM240.575 76.7016L238.422 82.4919H244.598L223.064 140.394H216.888L214.734 146.185H202.381L204.535 140.394H198.358L211.279 105.653H192.749L179.829 140.394H173.652L171.499 146.185H140.617L142.77 140.394H136.594L160.281 76.7016H166.457L164.304 82.4919H170.481L172.634 76.7016H178.81L180.964 70.9114H174.787L176.941 65.1211H232.529L230.376 70.9114H236.552L234.399 76.7016H240.575ZM201.363 82.4919L197.056 94.0724H215.586L219.892 82.4919H201.363ZM349.906 65.1211L347.753 70.9114H353.929L328.088 140.394H321.912L319.759 146.185H301.229L303.383 140.394H297.206L303.666 123.024H297.49L295.336 128.814H289.16L291.313 123.024H285.137L278.677 140.394H272.5L270.347 146.185H239.464L241.618 140.394H235.441L261.282 70.9114H267.459L263.152 82.4919H269.328L271.482 76.7016H277.658L279.811 70.9114H267.459L269.612 65.1211H300.494L298.341 70.9114H304.517L295.904 94.0724H302.08L299.927 99.8626H306.103L308.257 94.0724H314.433L323.047 70.9114H329.223L331.377 65.1211H349.906ZM444.423 76.7016L442.269 82.4919H448.446L426.912 140.394H420.735L418.582 146.185H406.229L408.383 140.394H402.206L415.126 105.653H396.597L383.677 140.394H377.5L375.347 146.185H344.464L346.618 140.394H340.441L364.129 76.7016H370.305L368.152 82.4919H374.328L376.482 76.7016H382.658L384.811 70.9114H378.635L380.788 65.1211H436.377L434.223 70.9114H440.4L438.246 76.7016H444.423ZM405.211 82.4919L400.904 94.0724H419.433L423.74 82.4919H405.211ZM547.577 65.1211L545.424 70.9114H551.6L549.447 76.7016H543.27L541.117 82.4919H504.058L488.984 123.024H507.514L511.821 111.443H505.644L507.798 105.653H501.621L503.775 99.8626H509.951L512.104 94.0724H536.81L534.657 99.8626H540.833L527.913 134.604H521.737L519.583 140.394H513.407L511.253 146.185H449.489L451.642 140.394H445.465L447.619 134.604H441.442L462.976 76.7016H469.153L466.999 82.4919H473.176L475.329 76.7016H481.506L483.659 70.9114H477.483L479.636 65.1211H547.577ZM644.272 70.9114L642.118 76.7016H648.295L626.761 134.604H620.584L618.431 140.394H612.254L610.101 146.185H548.336L550.49 140.394H544.313L546.467 134.604H540.29L561.824 76.7016H568L565.847 82.4919H572.024L574.177 76.7016H580.353L582.507 70.9114H576.33L578.484 65.1211H640.248L638.095 70.9114H644.272ZM587.832 123.024H606.362L621.435 82.4919H602.906L587.832 123.024ZM745.273 65.1211L743.119 70.9114H749.296L747.142 76.7016H740.966L738.812 82.4919H701.754L686.68 123.024H723.739L721.585 128.814H727.762L723.455 140.394H717.278L715.125 146.185H647.184L649.337 140.394H643.161L645.314 134.604H639.138L660.672 76.7016H666.848L664.695 82.4919H670.871L673.025 76.7016H679.201L681.354 70.9114H675.178L677.331 65.1211H745.273ZM841.967 70.9114H848.143L822.303 140.394H816.126L813.973 146.185H795.443L797.597 140.394H791.42L802.187 111.443H789.834L779.067 140.394H772.891L770.737 146.185H739.855L742.008 140.394H735.832L761.673 70.9114H767.849L763.542 82.4919H769.719L771.872 76.7016H778.049L780.202 70.9114H767.849L770.003 65.1211H800.885L798.732 70.9114H804.908L796.294 94.0724H808.647L817.261 70.9114H823.437L825.591 65.1211H844.12L841.967 70.9114ZM899.733 65.1211L897.579 70.9114H903.756L877.915 140.394H871.738L869.585 146.185H838.703L840.856 140.394H834.68L860.52 70.9114H866.697L862.39 82.4919H868.567L870.72 76.7016H876.896L879.05 70.9114H866.697L868.85 65.1211H899.733Z" fill="#F4F4F4"/>
</svg>
