<svg width="1116" height="917" viewBox="0 0 1116 917" fill="none" xmlns="http://www.w3.org/2000/svg">
<path d="M460 3H656C908.394 3 1113 207.606 1113 460V627C1113 785.506 984.506 914 826 914H290C131.494 914 3 785.506 3 627V460C3 207.606 207.606 3 460 3Z" fill="url(#paint0_radial_2007_22)" stroke="#212121" stroke-width="6"/>
<g filter="url(#filter0_d_2007_22)">
<path d="M469 298C469 338.869 435.869 372 395 372C354.131 372 321 338.869 321 298C321 257.131 354.131 224 395 224C435.869 224 469 257.131 469 298Z" fill="#E9C46A"/>
</g>
<path d="M416 859H699C703.418 859 707 862.582 707 867V913H408V867C408 862.582 411.582 859 416 859Z" fill="#5F5F5F" stroke="#212121" stroke-width="4"/>
<path d="M455.588 869.059L455.588 871.412H457.941L457.941 876.118H455.588L455.588 878.471H448.529L448.529 899.647H446.176L446.176 902H436.765L436.765 899.647H434.412L434.412 878.471H427.353L427.353 876.118H429.706L429.706 873.765H432.059L432.059 871.412H427.353L427.353 869.059H455.588ZM427.353 871.412L427.353 876.118H425L425 871.412H427.353ZM493.244 873.765L493.244 876.118H495.597L495.597 899.647H493.244L493.244 902H488.539L488.539 899.647H486.186L486.186 885.529H479.127L479.127 899.647H476.774L476.774 902H465.009L465.009 899.647H462.656L462.656 873.765H465.009L465.009 876.118H467.362L467.362 873.765H469.715L469.715 871.412H467.362L467.362 869.059H488.539L488.539 871.412H490.892L490.892 873.765H493.244ZM479.127 876.118L479.127 880.824H486.186L486.186 876.118H479.127ZM533.254 869.059L533.254 871.412H535.607L535.607 899.647H533.254L533.254 902H526.195L526.195 899.647H523.842L523.842 892.588H521.489L521.489 894.941H519.136L519.136 892.588H516.783L516.783 899.647H514.43L514.43 902H502.665L502.665 899.647H500.313L500.313 871.412H502.665L502.665 876.118H505.018L505.018 873.765H507.371L507.371 871.412H502.665L502.665 869.059H514.43L514.43 871.412H516.783L516.783 880.824H519.136L519.136 883.176H521.489L521.489 880.824H523.842L523.842 871.412H526.195L526.195 869.059H533.254ZM570.901 873.765L570.901 876.118H573.254L573.254 899.647H570.901L570.901 902H566.195L566.195 899.647H563.842L563.842 885.529H556.783L556.783 899.647H554.43L554.43 902H542.665L542.665 899.647H540.313L540.313 873.765H542.665L542.665 876.118H545.018L545.018 873.765H547.371L547.371 871.412H545.018L545.018 869.059H566.195L566.195 871.412H568.548L568.548 873.765H570.901ZM556.783 876.118L556.783 880.824H563.842L563.842 876.118H556.783ZM608.557 873.765H610.91L610.91 887.882H608.557L608.557 890.235H606.204L606.204 892.588H594.439L594.439 899.647H592.086L592.086 902H580.322L580.322 899.647H577.969L577.969 871.412H580.322L580.322 876.118H582.675L582.675 873.765H585.028L585.028 871.412H580.322L580.322 869.059H606.204L606.204 871.412H608.557L608.557 873.765ZM594.439 876.118L594.439 885.529H599.145L599.145 876.118H594.439ZM646.213 873.765L646.213 876.118H648.566L648.566 899.647H646.213L646.213 902H641.507L641.507 899.647H639.154L639.154 885.529H632.096L632.096 899.647H629.743L629.743 902H617.978L617.978 899.647H615.625L615.625 873.765H617.978L617.978 876.118H620.331L620.331 873.765H622.684L622.684 871.412H620.331L620.331 869.059H641.507L641.507 871.412H643.86L643.86 873.765H646.213ZM632.096 876.118L632.096 880.824H639.154L639.154 876.118H632.096ZM683.869 873.765L683.869 876.118H686.222L686.222 897.294H683.869L683.869 899.647H681.517L681.517 902H655.634L655.634 899.647H653.281L653.281 871.412H655.634L655.634 876.118H657.987L657.987 873.765H660.34L660.34 871.412H655.634L655.634 869.059H679.164L679.164 871.412H681.517L681.517 873.765H683.869ZM676.811 878.471H674.458L674.458 876.118H669.752L669.752 892.588H674.458L674.458 890.235H676.811L676.811 878.471Z" fill="#939393"/>
<g filter="url(#filter1_d_2007_22)">
<circle cx="878.5" cy="343.5" r="103.5" fill="#2A9D8F"/>
</g>
<g filter="url(#filter2_d_2007_22)">
<circle cx="235" cy="604" r="145" fill="#F4A261"/>
</g>
<g filter="url(#filter3_d_2007_22)">
<circle cx="761" cy="610" r="87" fill="#E76F51"/>
</g>
<circle cx="234.5" cy="606.5" r="193.5" stroke="#5F5F5F" stroke-width="6"/>
<circle cx="395" cy="298" r="100" stroke="#5F5F5F" stroke-width="6"/>
<circle cx="879" cy="344" r="138" stroke="#5F5F5F" stroke-width="6"/>
<circle cx="761" cy="610" r="113" stroke="#5F5F5F" stroke-width="6"/>
<line x1="493.446" y1="315.516" x2="421.446" y2="656.516" stroke="#5F5F5F" stroke-width="5"/>
<line x1="751.363" y1="290.816" x2="655.363" y2="568.816" stroke="#5F5F5F" stroke-width="5"/>
<line x1="994.19" y1="420.206" x2="864.19" y2="656.206" stroke="#5F5F5F" stroke-width="5"/>
<line x1="314.821" y1="238.712" x2="94.8214" y2="472.712" stroke="#5F5F5F" stroke-width="5"/>
<path d="M696.294 124.706L696.294 125.647H697.235L697.235 135.059H696.294L696.294 136H694.412L694.412 135.059H693.471L693.471 131.294H692.529L692.529 132.235H691.588L691.588 131.294H690.647L690.647 135.059H689.706L689.706 136H685.941L685.941 135.059H685L685 125.647H685.941L685.941 127.529H686.882L686.882 126.588H687.824L687.824 125.647H685.941L685.941 124.706H689.706L689.706 125.647H690.647L690.647 127.529H691.588L691.588 128.471H692.529L692.529 127.529H693.471L693.471 125.647H694.412L694.412 124.706H696.294ZM709.478 125.647L709.478 126.588H710.419L710.419 134.118H709.478L709.478 135.059H708.537L708.537 136H701.007L701.007 135.059H700.066L700.066 134.118H699.125L699.125 126.588H700.066L700.066 127.529H701.007L701.007 126.588H701.949L701.949 125.647H701.007L701.007 124.706H708.537L708.537 125.647H709.478ZM707.596 132.235L707.596 127.529H704.772L704.772 132.235H707.596ZM722.65 125.647L722.65 126.588H723.591L723.591 134.118H722.65L722.65 135.059H721.709L721.709 136H714.179L714.179 135.059H713.238L713.238 134.118H712.297L712.297 126.588H713.238L713.238 127.529H714.179L714.179 126.588H715.12L715.12 125.647H714.179L714.179 124.706H721.709L721.709 125.647H722.65ZM720.767 132.235L720.767 127.529H717.944L717.944 132.235H720.767ZM735.822 126.588L735.822 127.529H736.763L736.763 134.118H735.822L735.822 135.059H734.881L734.881 136H726.41L726.41 135.059H725.469L725.469 125.647H726.41L726.41 127.529H727.351L727.351 126.588H728.292L728.292 125.647H726.41L726.41 124.706H733.939L733.939 125.647H734.881L734.881 126.588H735.822ZM733.939 128.471H732.998L732.998 127.529H731.116L731.116 132.235H732.998L732.998 131.294H733.939L733.939 128.471Z" fill="#939393"/>
<path d="M695.353 31.5882L695.353 32.5294H696.294L696.294 39.1176H695.353L695.353 40.0588H694.412L694.412 41H685.941L685.941 40.0588H685L685 30.6471H685.941L685.941 32.5294H686.882L686.882 31.5882H687.824L687.824 30.6471H685.941L685.941 29.7059H693.471L693.471 30.6471H694.412L694.412 31.5882H695.353ZM693.471 33.4706H692.529L692.529 32.5294H690.647L690.647 37.2353H692.529L692.529 36.2941H693.471L693.471 33.4706ZM708.525 30.6471L708.525 31.5882H709.466L709.466 40.0588H708.525L708.525 41H707.584L707.584 40.0588H706.642L706.642 36.2941H703.819L703.819 40.0588H702.878L702.878 41H699.113L699.113 40.0588H698.172L698.172 31.5882H699.113L699.113 32.5294H700.054L700.054 31.5882H700.995L700.995 30.6471H700.054L700.054 29.7059H707.584L707.584 30.6471H708.525ZM706.642 33.4706L706.642 32.5294H703.819L703.819 33.4706H706.642ZM721.697 29.7059L721.697 30.6471H722.638L722.638 32.5294H721.697L721.697 33.4706H720.756L720.756 34.4118H719.814L719.814 40.0588H718.873L718.873 41H716.05L716.05 40.0588H715.108L715.108 35.3529H714.167L714.167 34.4118H713.226L713.226 33.4706H712.285L712.285 32.5294H713.226L713.226 31.5882H714.167L714.167 30.6471H712.285L712.285 29.7059H715.108L715.108 30.6471H716.05L716.05 31.5882H717.932L717.932 30.6471H718.873L718.873 29.7059H721.697ZM712.285 30.6471L712.285 32.5294H711.344L711.344 30.6471H712.285ZM734.869 29.7059L734.869 30.6471H735.81L735.81 31.5882H734.869L734.869 32.5294H730.163L730.163 33.4706H734.869L734.869 34.4118H735.81L735.81 39.1176H734.869L734.869 40.0588H733.927L733.927 41H725.457L725.457 40.0588H724.516L724.516 37.2353H725.457L725.457 36.2941H732.045L732.045 35.3529H725.457L725.457 34.4118H724.516L724.516 31.5882H725.457L725.457 32.5294H726.398L726.398 31.5882H727.339L727.339 30.6471H726.398L726.398 29.7059H734.869Z" fill="#939393"/>
<path d="M393.353 29.7059L393.353 30.6471H394.294L394.294 32.5294H393.353L393.353 33.4706H391.471L391.471 40.0588H390.529L390.529 41H386.765L386.765 40.0588H385.824L385.824 33.4706H383.941L383.941 32.5294H384.882L384.882 31.5882H385.824L385.824 30.6471H383.941L383.941 29.7059H393.353ZM383.941 30.6471L383.941 32.5294H383L383 30.6471H383.941ZM400.878 29.7059L400.878 30.6471H401.819L401.819 40.0588H400.878L400.878 41H397.113L397.113 40.0588H396.172L396.172 30.6471H397.113L397.113 32.5294H398.054L398.054 31.5882H398.995L398.995 30.6471H397.113L397.113 29.7059H400.878ZM414.997 29.7059L414.997 30.6471H415.938L415.938 40.0588H414.997L414.997 41H413.115L413.115 40.0588H412.174L412.174 36.2941H411.233L411.233 37.2353H410.291L410.291 36.2941H409.35L409.35 40.0588H408.409L408.409 41H404.644L404.644 40.0588H403.703L403.703 30.6471H404.644L404.644 32.5294H405.585L405.585 31.5882H406.527L406.527 30.6471H404.644L404.644 29.7059H408.409L408.409 30.6471H409.35L409.35 32.5294H410.291L410.291 33.4706H411.233L411.233 32.5294H412.174L412.174 30.6471H413.115L413.115 29.7059H414.997ZM428.181 29.7059L428.181 30.6471H429.122L429.122 31.5882H428.181L428.181 32.5294H423.475L423.475 33.4706H428.181L428.181 34.4118H429.122L429.122 35.3529H428.181L428.181 36.2941H423.475L423.475 37.2353H428.181L428.181 38.1765H429.122L429.122 40.0588H428.181L428.181 41H418.769L418.769 40.0588H417.828L417.828 30.6471H418.769L418.769 32.5294H419.71L419.71 31.5882H420.652L420.652 30.6471H418.769L418.769 29.7059H428.181Z" fill="#939393"/>
<path d="M679 4V146C679 150.418 675.418 154 671 154H445C440.582 154 437 150.418 437 146V4H679Z" fill="#5F5F5F" stroke="#212121" stroke-width="4"/>
<circle cx="666" cy="131" r="7" fill="#272929"/>
<rect x="443" y="22" width="55" height="25" rx="4" fill="#272929"/>
<rect x="617" y="22" width="56" height="25" rx="4" fill="#272929"/>
<defs>
<filter id="filter0_d_2007_22" x="317" y="224" width="156" height="156" filterUnits="userSpaceOnUse" color-interpolation-filters="sRGB">
<feFlood flood-opacity="0" result="BackgroundImageFix"/>
<feColorMatrix in="SourceAlpha" type="matrix" values="0 0 0 0 0 0 0 0 0 0 0 0 0 0 0 0 0 0 127 0" result="hardAlpha"/>
<feOffset dy="4"/>
<feGaussianBlur stdDeviation="2"/>
<feComposite in2="hardAlpha" operator="out"/>
<feColorMatrix type="matrix" values="0 0 0 0 0 0 0 0 0 0 0 0 0 0 0 0 0 0 0.25 0"/>
<feBlend mode="normal" in2="BackgroundImageFix" result="effect1_dropShadow_2007_22"/>
<feBlend mode="normal" in="SourceGraphic" in2="effect1_dropShadow_2007_22" result="shape"/>
</filter>
<filter id="filter1_d_2007_22" x="771" y="240" width="215" height="215" filterUnits="userSpaceOnUse" color-interpolation-filters="sRGB">
<feFlood flood-opacity="0" result="BackgroundImageFix"/>
<feColorMatrix in="SourceAlpha" type="matrix" values="0 0 0 0 0 0 0 0 0 0 0 0 0 0 0 0 0 0 127 0" result="hardAlpha"/>
<feOffset dy="4"/>
<feGaussianBlur stdDeviation="2"/>
<feComposite in2="hardAlpha" operator="out"/>
<feColorMatrix type="matrix" values="0 0 0 0 0 0 0 0 0 0 0 0 0 0 0 0 0 0 0.25 0"/>
<feBlend mode="normal" in2="BackgroundImageFix" result="effect1_dropShadow_2007_22"/>
<feBlend mode="normal" in="SourceGraphic" in2="effect1_dropShadow_2007_22" result="shape"/>
</filter>
<filter id="filter2_d_2007_22" x="86" y="459" width="298" height="298" filterUnits="userSpaceOnUse" color-interpolation-filters="sRGB">
<feFlood flood-opacity="0" result="BackgroundImageFix"/>
<feColorMatrix in="SourceAlpha" type="matrix" values="0 0 0 0 0 0 0 0 0 0 0 0 0 0 0 0 0 0 127 0" result="hardAlpha"/>
<feOffset dy="4"/>
<feGaussianBlur stdDeviation="2"/>
<feComposite in2="hardAlpha" operator="out"/>
<feColorMatrix type="matrix" values="0 0 0 0 0 0 0 0 0 0 0 0 0 0 0 0 0 0 0.25 0"/>
<feBlend mode="normal" in2="BackgroundImageFix" result="effect1_dropShadow_2007_22"/>
<feBlend mode="normal" in="SourceGraphic" in2="effect1_dropShadow_2007_22" result="shape"/>
</filter>
<filter id="filter3_d_2007_22" x="670" y="523" width="182" height="182" filterUnits="userSpaceOnUse" color-interpolation-filters="sRGB">
<feFlood flood-opacity="0" result="BackgroundImageFix"/>
<feColorMatrix in="SourceAlpha" type="matrix" values="0 0 0 0 0 0 0 0 0 0 0 0 0 0 0 0 0 0 127 0" result="hardAlpha"/>
<feOffset dy="4"/>
<feGaussianBlur stdDeviation="2"/>
<feComposite in2="hardAlpha" operator="out"/>
<feColorMatrix type="matrix" values="0 0 0 0 0 0 0 0 0 0 0 0 0 0 0 0 0 0 0.25 0"/>
<feBlend mode="normal" in2="BackgroundImageFix" result="effect1_dropShadow_2007_22"/>
<feBlend mode="normal" in="SourceGraphic" in2="effect1_dropShadow_2007_22" result="shape"/>
</filter>
<radialGradient id="paint0_radial_2007_22" cx="0" cy="0" r="1" gradientUnits="userSpaceOnUse" gradientTransform="translate(558 458.5) rotate(90) scale(458.5 558)">
<stop stop-color="#C4BEBB"/>
<stop offset="1" stop-color="#D8D2B8"/>
</radialGradient>
</defs>
</svg>
